<?xml version="1.0" encoding="utf-8"?>
<!-- Generator: Adobe Illustrator 18.1.1, SVG Export Plug-In . SVG Version: 6.00 Build 0)  -->
<!DOCTYPE svg PUBLIC "-//W3C//DTD SVG 1.1//EN" "http://www.w3.org/Graphics/SVG/1.1/DTD/svg11.dtd">
<svg version="1.1" xmlns="http://www.w3.org/2000/svg" xmlns:xlink="http://www.w3.org/1999/xlink" x="0px" y="0px"
	 viewBox="0 0 378.1 73.8" enable-background="new 0 0 378.1 73.8" xml:space="preserve">
<g id="Layer_2">
</g>
<g id="Layer_1">
	<g>
		<path fill="#00B624" d="M0,0c27.5,0,54.8,0,82.3,0c0,24.6,0,49.1,0,73.8c-27.4,0-54.8,0-82.3,0C0,49.2,0,24.7,0,0z M44.7,51.3V23
			h-10v35.1c0,0,16.5,0.3,24.1,0c6.9-0.2,11.5-4.2,13.3-10.8c1.9-7.1,2-14.3,0.3-21.5c-1.1-4.7-3.8-8.5-8.7-10
			c-2.4-0.7-4.9-1.1-7.4-1.1c-15.4-0.1-48,0-48,0v6.4c0,0,12.9,0,14.1,0c0,0.7,0,1.1,0,1.6c0,8.1,0,35.4,0,35.4h9.8v-37
			c0,0,14.7,0,21.3,0c4.8,0,7.3,2,8.4,6.6c1.1,4.3,1,8.7,0.6,13c-0.2,2.3-0.9,4.6-1.6,6.8c-0.8,2.1-2.5,3.6-4.8,3.9
			C51.9,51.3,44.7,51.3,44.7,51.3z"/>
		<path fill="#353C47" d="M141.4,44.9c0-7.5,0-14.8,0-22.3c3.4,0,6.7,0,10.2,0c0,1.1,0,2.2,0,3.3c1.8-2.8,4.4-3.9,7.5-3.9
			c3,0,5.8,0.6,7.4,3.6c2.1-3.2,5.2-3.8,8.7-3.6c4.2,0.3,6.4,2.4,6.5,6.7c0.1,4.6,0.1,9.1,0.1,13.7c0,0.8,0,1.6,0,2.5
			c-3.6,0-7.1,0-10.9,0c0-0.4,0-0.9,0-1.3c0-3.8,0-7.6,0-11.5c0-0.4,0-0.8,0-1.1c-0.1-1.4-0.8-2.1-2-2.1c-1.1,0.1-1.8,0.7-1.8,2.2
			c0,4.1,0,8.1,0,12.2c0,0.5,0,1,0,1.6c-3.6,0-7.2,0-10.9,0c0-0.4,0-0.9,0-1.3c0-3.7,0-7.4,0-11.1c0-0.6,0-1.3-0.1-1.9
			c-0.1-1.1-0.7-1.7-1.8-1.7c-1.1,0-1.7,0.6-1.9,1.7c-0.1,0.6-0.1,1.2-0.1,1.8c0,4.1,0,8.3,0,12.6C148.6,44.9,145,44.9,141.4,44.9z"
			/>
		<path fill="#353C47" d="M101.1,45c1.3-3.6,2.5-7,3.7-10.4c2.2-6.3,4.4-12.5,6.6-18.8c0.3-0.8,0.6-1.1,1.5-1.1
			c4.9,0.1,9.9,0,14.9,0c3.6,10,7.1,20,10.8,30.2c-1.3,0-2.3,0-3.4,0c-2.6,0-5.1,0-7.7,0c-0.8,0-1.2-0.2-1.4-1
			c-0.4-1.6-0.9-3.2-1.5-4.7c-0.1-0.4-0.7-0.8-1.1-0.8c-2.7-0.1-5.4,0-8.1-0.1c-0.7,0-1,0.2-1.1,0.9c-0.4,1.6-0.9,3.2-1.4,4.8
			c-0.1,0.3-0.5,0.8-0.8,0.8C108.5,45,104.9,45,101.1,45z M116.2,31.1c2.3,0,4.4,0,6.7,0c-1.1-3.3-2.1-6.4-3.2-9.6
			c-0.1,0-0.2,0-0.3,0C118.3,24.6,117.3,27.8,116.2,31.1z"/>
		<path fill="#353C47" d="M349.6,45c-3.3,0-6.6,0-10,0c0-1.2,0-2.4,0-3.6c-0.2,0.1-0.3,0.1-0.4,0.1c-1.6,3.3-4.4,4.3-7.8,4.1
			c-3.5-0.2-6.2-1.8-7.7-5c-1.9-4.2-2-8.6-0.4-13c2.4-6.8,11.9-7.4,15.4-2.3c0-4.3,0-8.4,0-12.7c3.7,0,7.2,0,10.9,0
			C349.6,23.3,349.6,34.1,349.6,45z M339.3,33.5c-0.2-1.1-0.4-2.3-0.7-3.4c-0.3-1-1.2-1.5-2.3-1.5c-1,0-1.8,0.5-2.2,1.4
			c-0.8,2.2-0.8,4.5,0,6.7c0.4,1,1.2,1.5,2.3,1.5c1.1,0,1.9-0.6,2.2-1.6C339,35.7,339.1,34.6,339.3,33.5z"/>
		<path fill="#353C47" d="M308.7,30.6c-0.2-1.6-1-2.5-2.9-2.8c-3.1-0.6-6-0.1-8.9,1.1c-0.4,0.1-0.7,0.3-1.1,0.4
			c-0.1,0-0.2,0-0.3-0.1c0-1.8,0-3.6,0-5.4c0-0.3,0.4-0.7,0.7-0.8c5.5-1.5,11-1.7,16.4-0.1c4,1.1,6,3.8,6.1,8c0.1,4.6,0,9.3,0,14
			c-3.4,0-6.7,0-10.1,0c0-1,0-1.9,0-2.8c-0.2,0-0.3,0-0.3,0c-2.7,3.5-6.4,3.9-10.4,2.9c-2.6-0.6-4.6-2.2-4.9-5.1
			c-0.4-3.2,0.4-5.9,3.4-7.7c2.1-1.2,4.4-1.6,6.8-1.7C305,30.6,306.8,30.6,308.7,30.6z M308.7,34.9c-1.6,0.3-3.2,0.4-4.6,0.8
			c-1.1,0.3-1.4,1.3-1.3,2.5c0.2,1.1,0.9,1.5,1.9,1.7C307.3,40.1,309,38.2,308.7,34.9z"/>
		<path fill="#353C47" d="M210.4,36.3c-5.3,0-10.2,0-15.1,0c-0.1,1.6,0.7,2.6,2.4,3.1c2.8,0.8,5.6,0.5,8.3-0.1
			c0.8-0.2,1.5-0.4,2.5-0.7c0,1.8,0,3.5,0,5.3c0,0.2-0.4,0.5-0.6,0.6c-5.1,1.2-10.3,1.7-15.4,0.3c-4.9-1.4-7.7-5-8-10.1
			c-0.1-1.1-0.1-2.3,0.1-3.4c0.5-4,2.7-6.8,6.5-8.2c3.4-1.2,7-1.4,10.5-0.8c4.1,0.7,6.8,3.2,7.8,7.2C210,31.6,210.1,33.9,210.4,36.3
			z M200.8,31.5c-0.1-1.5-0.1-3-1.4-4c-0.9-0.7-1.9-0.6-2.8,0c-1.3,1-1.5,2.4-1.5,4C197,31.5,198.8,31.5,200.8,31.5z"/>
		<path fill="#353C47" d="M378.1,36.2c-5,0-9.9,0-14.8,0c-0.1,1.6,0.8,2.9,2.7,3.1c2,0.3,4,0.3,6,0.2c1.5-0.1,2.9-0.6,4.5-0.9
			c0,1.8,0,3.6,0,5.6c-5.7,1.2-11.5,2.1-17.2,0c-4.2-1.5-6.3-4.8-6.7-9.2c-0.1-1.5-0.1-3.1,0.2-4.6c0.5-3.4,2.4-5.8,5.6-7.1
			c4-1.7,8.2-2,12.5-0.9c4.3,1.1,6.8,4.6,7.3,9.8C378.2,33.5,378.1,34.8,378.1,36.2z M363.1,31.4c2,0,3.8,0,5.7,0
			c-0.1-1.6,0-3.3-1.6-4c-0.7-0.4-2-0.3-2.7,0.1C363.1,28.3,363,29.9,363.1,31.4z"/>
		<path fill="#353C47" d="M264.9,22.5c1.8,0,3.3,0,4.9,0c0,2.2,0,4.2,0,6.4c-1.6,0-3.2,0-4.8,0c0,2.6-0.1,4.9,0,7.3
			c0.1,1.4,1.1,2.1,2.5,2.1c0.7,0,1.4-0.2,2.3-0.2c0,2,0,3.9,0,5.9c0,0.2-0.3,0.6-0.6,0.6c-3,0.9-6,1.3-9.1,0.8
			c-3.4-0.5-5.5-2.6-5.9-6.1c-0.3-2.8-0.2-5.7-0.2-8.5c0-0.5,0-1.1,0-1.8c-1.3,0-2.5,0-3.8,0c0-2.2,0-4.2,0-6.4c1.2,0,2.4,0,3.8,0
			c0-1.6,0-3,0-4.4c0-0.4,0.4-1,0.7-1.1c3.1-1,6.2-1.9,9.3-2.9c0.2-0.1,0.5-0.1,0.9-0.2C264.9,16.8,264.9,19.5,264.9,22.5z"/>
		<path fill="#353C47" d="M232.1,22.1c0,0.3,0.1,0.5,0.1,0.8c0,2.7,0,5.4,0,8.2c-0.5-0.1-0.8-0.1-1.2-0.2c-3.8-0.5-6.8,2-6.9,5.9
			c0,2.3,0,4.5,0,6.8c0,0.4,0,0.8,0,1.3c-3.7,0-7.2,0-10.8,0c0-7.4,0-14.8,0-22.3c3.3,0,6.7,0,10.1,0c0,1.5,0,3,0,4.5
			C225.4,23.6,227.8,21.3,232.1,22.1z"/>
		<path fill="#353C47" d="M283.9,44.9c-3.7,0-7.2,0-10.8,0c0-7.5,0-14.9,0-22.4c3.3,0,6.6,0,10,0c0,1.5,0,3,0,4.5
			c0.1,0.1,0.2,0.1,0.2,0.2c1.7-3.5,4.1-6,8.5-5.1c0,3,0,5.9,0,8.9c-0.4-0.1-0.8-0.1-1.1-0.2c-3.8-0.5-6.8,2.1-6.8,5.9
			c0,2.3,0,4.7,0,7C283.9,44.2,283.9,44.5,283.9,44.9z"/>
		<path fill="#353C47" d="M247.2,44.9c-3.6,0-7.1,0-10.7,0c0-7.5,0-14.9,0-22.4c3.6,0,7.1,0,10.7,0C247.2,30,247.2,37.4,247.2,44.9z
			"/>
		<path fill="#353C47" d="M236.4,19.9c0-2.4,0-4.8,0-7.3c3.5,0,7.1,0,10.7,0c0,2.4,0,4.8,0,7.3C243.6,19.9,240.1,19.9,236.4,19.9z"
			/>
	</g>
</g>
</svg>
